<svg width="316" height="35" viewBox="0 0 316 35" fill="none" xmlns="http://www.w3.org/2000/svg">
<path d="M40.396 26.288C38.828 26.288 37.416 25.916 36.16 25.172C34.904 24.42 33.92 23.384 33.208 22.064C32.496 20.736 32.14 19.248 32.14 17.6C32.14 15.952 32.496 14.468 33.208 13.148C33.92 11.82 34.904 10.784 36.16 10.04C37.416 9.288 38.828 8.912 40.396 8.912C41.724 8.912 42.956 9.184 44.092 9.728C45.228 10.264 46.156 11 46.876 11.936C47.596 12.864 48.024 13.896 48.16 15.032H45.268C45.14 14.384 44.844 13.796 44.38 13.268C43.916 12.732 43.336 12.312 42.64 12.008C41.944 11.696 41.2 11.54 40.408 11.54C39.392 11.54 38.484 11.8 37.684 12.32C36.884 12.832 36.256 13.548 35.8 14.468C35.352 15.388 35.128 16.432 35.128 17.6C35.128 18.768 35.352 19.812 35.8 20.732C36.256 21.652 36.884 22.372 37.684 22.892C38.492 23.404 39.408 23.66 40.432 23.66C41.32 23.66 42.124 23.488 42.844 23.144C43.572 22.8 44.156 22.32 44.596 21.704C45.036 21.08 45.288 20.372 45.352 19.58H41.356V17.192H48.256V18.536C48.256 20.008 47.916 21.336 47.236 22.52C46.556 23.696 45.62 24.62 44.428 25.292C43.236 25.956 41.892 26.288 40.396 26.288ZM51.8307 13.712H54.6627V15.56C55.0547 14.936 55.5427 14.46 56.1267 14.132C56.7107 13.796 57.3787 13.628 58.1307 13.628H58.5867V16.508H57.7827C56.8307 16.5 56.0747 16.752 55.5147 17.264C54.9627 17.776 54.6867 18.476 54.6867 19.364V26H51.8307V13.712ZM65.3511 13.424C66.3511 13.424 67.2351 13.604 68.0031 13.964C68.7711 14.316 69.3671 14.828 69.7911 15.5C70.2151 16.164 70.4271 16.952 70.4271 17.864V26H67.6671V24.212C67.2831 24.884 66.7591 25.4 66.0951 25.76C65.4391 26.112 64.6631 26.288 63.7671 26.288C62.9751 26.288 62.2631 26.14 61.6311 25.844C61.0071 25.54 60.5191 25.12 60.1671 24.584C59.8151 24.04 59.6391 23.424 59.6391 22.736C59.6391 22.08 59.8071 21.476 60.1431 20.924C60.4871 20.364 60.9631 19.908 61.5711 19.556C62.1791 19.204 62.8631 18.988 63.6231 18.908L66.8271 18.572C67.0751 18.548 67.2711 18.46 67.4151 18.308C67.5591 18.148 67.6311 17.916 67.6311 17.612C67.6231 17.028 67.4031 16.556 66.9711 16.196C66.5391 15.836 65.9751 15.656 65.2791 15.656C64.8311 15.656 64.4191 15.736 64.0431 15.896C63.6751 16.048 63.3791 16.256 63.1551 16.52C62.9311 16.784 62.7991 17.076 62.7591 17.396H59.9391C60.0191 16.628 60.3031 15.944 60.7911 15.344C61.2791 14.744 61.9191 14.276 62.7111 13.94C63.5031 13.596 64.3831 13.424 65.3511 13.424ZM62.5431 22.412C62.5431 22.924 62.7431 23.34 63.1431 23.66C63.5431 23.98 64.0591 24.14 64.6911 24.14C65.2671 24.14 65.7751 24.024 66.2151 23.792C66.6631 23.56 67.0111 23.24 67.2591 22.832C67.5071 22.416 67.6311 21.94 67.6311 21.404V20.312L64.3071 20.696C63.7791 20.752 63.3511 20.932 63.0231 21.236C62.7031 21.54 62.5431 21.932 62.5431 22.412ZM82.6624 24.212C82.2144 24.876 81.6304 25.388 80.9104 25.748C80.1904 26.108 79.3784 26.288 78.4744 26.288C77.3704 26.288 76.3824 26.02 75.5104 25.484C74.6464 24.94 73.9704 24.18 73.4824 23.204C73.0024 22.228 72.7624 21.112 72.7624 19.856C72.7624 18.6 73.0024 17.484 73.4824 16.508C73.9704 15.532 74.6464 14.776 75.5104 14.24C76.3824 13.696 77.3704 13.424 78.4744 13.424C79.3784 13.424 80.1904 13.604 80.9104 13.964C81.6304 14.324 82.2144 14.836 82.6624 15.5V9.2H85.5184V26H82.6624V24.212ZM75.7264 19.856C75.7264 20.616 75.8704 21.292 76.1584 21.884C76.4544 22.468 76.8624 22.924 77.3824 23.252C77.9104 23.572 78.5144 23.732 79.1944 23.732C79.8264 23.732 80.3904 23.592 80.8864 23.312C81.3904 23.032 81.7944 22.64 82.0984 22.136C82.4104 21.624 82.5984 21.032 82.6624 20.36V19.352C82.5984 18.68 82.4104 18.092 82.0984 17.588C81.7944 17.076 81.3904 16.68 80.8864 16.4C80.3904 16.12 79.8264 15.98 79.1944 15.98C78.5144 15.98 77.9104 16.144 77.3824 16.472C76.8624 16.792 76.4544 17.248 76.1584 17.84C75.8704 18.424 75.7264 19.096 75.7264 19.856ZM88.9323 9.2H91.7763V26H88.9323V9.2ZM100.671 26.288C99.4707 26.288 98.3907 26.012 97.4307 25.46C96.4787 24.908 95.7347 24.144 95.1987 23.168C94.6627 22.184 94.3947 21.076 94.3947 19.844C94.3947 18.628 94.6667 17.532 95.2107 16.556C95.7547 15.58 96.5027 14.816 97.4547 14.264C98.4147 13.704 99.4867 13.424 100.671 13.424C101.887 13.424 102.951 13.7 103.863 14.252C104.783 14.804 105.491 15.568 105.987 16.544C106.483 17.512 106.731 18.612 106.731 19.844V20.624H97.3587C97.4387 21.264 97.6347 21.828 97.9467 22.316C98.2587 22.804 98.6587 23.184 99.1467 23.456C99.6347 23.72 100.179 23.852 100.779 23.852C101.483 23.852 102.079 23.748 102.567 23.54C103.055 23.332 103.431 23.032 103.695 22.64H106.515C106.387 23.24 106.071 23.82 105.567 24.38C105.063 24.94 104.391 25.4 103.551 25.76C102.711 26.112 101.751 26.288 100.671 26.288ZM103.803 18.644C103.659 17.764 103.319 17.068 102.783 16.556C102.255 16.044 101.555 15.788 100.683 15.788C99.8187 15.788 99.0907 16.044 98.4987 16.556C97.9147 17.068 97.5427 17.764 97.3827 18.644H103.803ZM121.957 9.2C122.989 9.2 123.909 9.388 124.717 9.764C125.525 10.14 126.153 10.664 126.601 11.336C127.057 12 127.285 12.756 127.285 13.604C127.285 14.492 127.045 15.256 126.565 15.896C126.085 16.536 125.433 16.98 124.609 17.228C125.561 17.484 126.317 17.984 126.877 18.728C127.437 19.464 127.717 20.336 127.717 21.344C127.717 22.24 127.481 23.044 127.009 23.756C126.537 24.46 125.873 25.012 125.017 25.412C124.169 25.804 123.197 26 122.101 26H114.781V9.2H121.957ZM121.789 23.624C122.357 23.624 122.857 23.524 123.289 23.324C123.729 23.116 124.069 22.828 124.309 22.46C124.557 22.084 124.681 21.648 124.681 21.152C124.681 20.656 124.557 20.216 124.309 19.832C124.069 19.448 123.729 19.148 123.289 18.932C122.857 18.716 122.357 18.608 121.789 18.608H117.685V23.624H121.789ZM121.645 16.304C122.165 16.304 122.625 16.208 123.025 16.016C123.425 15.816 123.733 15.54 123.949 15.188C124.173 14.828 124.285 14.408 124.285 13.928C124.285 13.216 124.041 12.648 123.553 12.224C123.073 11.792 122.437 11.576 121.645 11.576H117.685V16.304H121.645ZM141.497 26H138.725V24.236C138.325 24.9 137.797 25.408 137.141 25.76C136.493 26.112 135.745 26.288 134.897 26.288C134.017 26.288 133.237 26.096 132.557 25.712C131.885 25.328 131.361 24.772 130.985 24.044C130.609 23.316 130.421 22.448 130.421 21.44V13.712H133.277V21.008C133.277 21.88 133.501 22.56 133.949 23.048C134.405 23.536 135.029 23.78 135.821 23.78C136.381 23.78 136.873 23.656 137.297 23.408C137.729 23.16 138.061 22.812 138.293 22.364C138.533 21.916 138.653 21.404 138.653 20.828V13.712H141.497V26ZM145.042 13.712H147.898V26H145.042V13.712ZM148.018 9.2V11.912H144.922V9.2H148.018ZM151.44 9.2H154.284V26H151.44V9.2ZM166.827 24.212C166.379 24.876 165.795 25.388 165.075 25.748C164.355 26.108 163.543 26.288 162.639 26.288C161.535 26.288 160.547 26.02 159.675 25.484C158.811 24.94 158.135 24.18 157.646 23.204C157.167 22.228 156.927 21.112 156.927 19.856C156.927 18.6 157.167 17.484 157.646 16.508C158.135 15.532 158.811 14.776 159.675 14.24C160.547 13.696 161.535 13.424 162.639 13.424C163.543 13.424 164.355 13.604 165.075 13.964C165.795 14.324 166.379 14.836 166.827 15.5V9.2H169.683V26H166.827V24.212ZM159.891 19.856C159.891 20.616 160.035 21.292 160.323 21.884C160.619 22.468 161.027 22.924 161.547 23.252C162.075 23.572 162.679 23.732 163.359 23.732C163.991 23.732 164.555 23.592 165.051 23.312C165.555 23.032 165.959 22.64 166.263 22.136C166.575 21.624 166.763 21.032 166.827 20.36V19.352C166.763 18.68 166.575 18.092 166.263 17.588C165.959 17.076 165.555 16.68 165.051 16.4C164.555 16.12 163.991 15.98 163.359 15.98C162.679 15.98 162.075 16.144 161.547 16.472C161.027 16.792 160.619 17.248 160.323 17.84C160.035 18.424 159.891 19.096 159.891 19.856ZM176.777 9.2H179.945L184.637 22.244L189.113 9.2H192.293L186.137 26H182.981L176.777 9.2ZM194.378 13.712H197.234V26H194.378V13.712ZM197.354 9.2V11.912H194.258V9.2H197.354ZM205.3 26.288C204.284 26.288 203.364 26.136 202.54 25.832C201.716 25.52 201.064 25.088 200.584 24.536C200.112 23.976 199.864 23.34 199.84 22.628H202.708C202.732 22.908 202.856 23.16 203.08 23.384C203.312 23.608 203.616 23.784 203.992 23.912C204.376 24.04 204.804 24.104 205.276 24.104C205.748 24.104 206.164 24.036 206.524 23.9C206.884 23.764 207.16 23.576 207.352 23.336C207.552 23.088 207.652 22.808 207.652 22.496C207.652 22.152 207.548 21.86 207.34 21.62C207.14 21.38 206.86 21.232 206.5 21.176L203.356 20.696C202.388 20.544 201.624 20.156 201.064 19.532C200.512 18.908 200.236 18.132 200.236 17.204C200.236 16.5 200.444 15.864 200.86 15.296C201.276 14.72 201.856 14.268 202.6 13.94C203.352 13.612 204.208 13.448 205.168 13.448C206.12 13.448 206.976 13.6 207.736 13.904C208.504 14.2 209.108 14.612 209.548 15.14C209.996 15.66 210.236 16.252 210.268 16.916H207.376C207.344 16.54 207.12 16.232 206.704 15.992C206.288 15.752 205.768 15.632 205.144 15.632C204.52 15.632 204.012 15.768 203.62 16.04C203.228 16.312 203.032 16.656 203.032 17.072C203.032 17.392 203.128 17.66 203.32 17.876C203.52 18.092 203.804 18.228 204.172 18.284L207.256 18.74C207.912 18.828 208.484 19.044 208.972 19.388C209.46 19.724 209.832 20.148 210.088 20.66C210.352 21.172 210.484 21.732 210.484 22.34C210.484 23.1 210.26 23.78 209.812 24.38C209.372 24.98 208.756 25.448 207.964 25.784C207.18 26.12 206.292 26.288 205.3 26.288ZM223.927 26H221.155V24.236C220.755 24.9 220.227 25.408 219.571 25.76C218.923 26.112 218.175 26.288 217.327 26.288C216.447 26.288 215.667 26.096 214.987 25.712C214.315 25.328 213.791 24.772 213.415 24.044C213.039 23.316 212.851 22.448 212.851 21.44V13.712H215.707V21.008C215.707 21.88 215.931 22.56 216.379 23.048C216.835 23.536 217.459 23.78 218.251 23.78C218.811 23.78 219.303 23.656 219.727 23.408C220.159 23.16 220.491 22.812 220.723 22.364C220.963 21.916 221.083 21.404 221.083 20.828V13.712H223.927V26ZM232.343 13.424C233.343 13.424 234.227 13.604 234.995 13.964C235.763 14.316 236.359 14.828 236.783 15.5C237.207 16.164 237.419 16.952 237.419 17.864V26H234.659V24.212C234.275 24.884 233.751 25.4 233.087 25.76C232.431 26.112 231.655 26.288 230.759 26.288C229.967 26.288 229.255 26.14 228.623 25.844C227.999 25.54 227.511 25.12 227.159 24.584C226.807 24.04 226.631 23.424 226.631 22.736C226.631 22.08 226.799 21.476 227.135 20.924C227.479 20.364 227.955 19.908 228.563 19.556C229.171 19.204 229.855 18.988 230.615 18.908L233.819 18.572C234.067 18.548 234.263 18.46 234.407 18.308C234.551 18.148 234.623 17.916 234.623 17.612C234.615 17.028 234.395 16.556 233.963 16.196C233.531 15.836 232.967 15.656 232.271 15.656C231.823 15.656 231.411 15.736 231.035 15.896C230.667 16.048 230.371 16.256 230.147 16.52C229.923 16.784 229.791 17.076 229.751 17.396H226.931C227.011 16.628 227.295 15.944 227.783 15.344C228.271 14.744 228.911 14.276 229.703 13.94C230.495 13.596 231.375 13.424 232.343 13.424ZM229.535 22.412C229.535 22.924 229.735 23.34 230.135 23.66C230.535 23.98 231.051 24.14 231.683 24.14C232.259 24.14 232.767 24.024 233.207 23.792C233.655 23.56 234.003 23.24 234.251 22.832C234.499 22.416 234.623 21.94 234.623 21.404V20.312L231.299 20.696C230.771 20.752 230.343 20.932 230.015 21.236C229.695 21.54 229.535 21.932 229.535 22.412ZM240.667 9.2H243.511V26H240.667V9.2ZM247.065 13.712H249.921V26H247.065V13.712ZM250.041 9.2V11.912H246.945V9.2H250.041ZM258.984 16.1H252.888V13.712H262.392V16.052L255.984 23.612H262.368V26H252.576V23.66L258.984 16.1ZM270.288 26.288C269.088 26.288 268.008 26.012 267.048 25.46C266.096 24.908 265.352 24.144 264.816 23.168C264.28 22.184 264.012 21.076 264.012 19.844C264.012 18.628 264.284 17.532 264.828 16.556C265.372 15.58 266.12 14.816 267.072 14.264C268.032 13.704 269.104 13.424 270.288 13.424C271.504 13.424 272.568 13.7 273.48 14.252C274.4 14.804 275.108 15.568 275.604 16.544C276.1 17.512 276.348 18.612 276.348 19.844V20.624H266.976C267.056 21.264 267.252 21.828 267.564 22.316C267.876 22.804 268.276 23.184 268.764 23.456C269.252 23.72 269.796 23.852 270.396 23.852C271.1 23.852 271.696 23.748 272.184 23.54C272.672 23.332 273.048 23.032 273.312 22.64H276.132C276.004 23.24 275.688 23.82 275.184 24.38C274.68 24.94 274.008 25.4 273.168 25.76C272.328 26.112 271.368 26.288 270.288 26.288ZM273.42 18.644C273.276 17.764 272.936 17.068 272.4 16.556C271.872 16.044 271.172 15.788 270.3 15.788C269.436 15.788 268.708 16.044 268.116 16.556C267.532 17.068 267.16 17.764 267 18.644H273.42ZM278.964 13.712H281.796V15.56C282.188 14.936 282.676 14.46 283.26 14.132C283.844 13.796 284.512 13.628 285.264 13.628H285.72V16.508H284.916C283.964 16.5 283.208 16.752 282.648 17.264C282.096 17.776 281.82 18.476 281.82 19.364V26H278.964V13.712Z" fill="white"/>
<path d="M11.25 13V18" stroke="#ABB2BF" stroke-width="2.5" stroke-linejoin="round"/>
<path d="M4.75 23V20C4.75 18.8954 5.64543 18 6.75 18H10.75H14.75C15.8546 18 16.75 18.8954 16.75 20V23" stroke="#ABB2BF" stroke-width="2.5" stroke-linejoin="round"/>
<path d="M3.75 23C2.36929 23 1.25 24.1193 1.25 25.5C1.25 26.8807 2.36929 28 3.75 28H5.75C7.13071 28 8.25 26.8807 8.25 25.5C8.25 24.1193 7.13071 23 5.75 23H3.75Z" fill="#ABB2BF" stroke="white" stroke-width="2.5" stroke-linecap="round" stroke-linejoin="round"/>
<path d="M14.75 23C13.3693 23 12.25 24.1193 12.25 25.5C12.25 26.8807 13.3693 28 14.75 28H18.75C20.1307 28 21.25 26.8807 21.25 25.5C21.25 24.1193 20.1307 23 18.75 23H14.75Z" fill="#98C379" stroke="white" stroke-width="2.5" stroke-linecap="round" stroke-linejoin="round"/>
<path d="M8 13C6.61929 13 5.5 11.8807 5.5 10.5C5.5 9.11929 6.61929 8 8 8H15C16.3807 8 17.5 9.11929 17.5 10.5C17.5 11.8807 16.3807 13 15 13H8Z" fill="#E06C75" stroke="white" stroke-width="2.5" stroke-linejoin="round"/>
</svg>
